<mxfile host="app.diagrams.net" agent="Mozilla/5.0 (Windows NT 10.0; Win64; x64) AppleWebKit/537.36 (KHTML, like Gecko) Chrome/136.0.0.0 Safari/537.36" version="27.0.8">
  <diagram name="Page-1" id="baArDG18YVKXChsgXZeD">
    <mxGraphModel dx="996" dy="593" grid="1" gridSize="10" guides="1" tooltips="1" connect="1" arrows="1" fold="1" page="1" pageScale="1" pageWidth="827" pageHeight="1169" math="0" shadow="0">
      <root>
        <mxCell id="0" />
        <mxCell id="1" parent="0" />
        <mxCell id="m6sJ-5spfT8-BwfnpEcr-20" value="&lt;span style=&quot;font-weight: 400;&quot;&gt;BloodPressureRule&lt;/span&gt;" style="swimlane;fontStyle=1;align=center;verticalAlign=top;childLayout=stackLayout;horizontal=1;startSize=26;horizontalStack=0;resizeParent=1;resizeParentMax=0;resizeLast=0;collapsible=1;marginBottom=0;whiteSpace=wrap;html=1;" vertex="1" parent="1">
          <mxGeometry x="550" y="50" width="160" height="138" as="geometry" />
        </mxCell>
        <mxCell id="m6sJ-5spfT8-BwfnpEcr-21" value="- systolicThreshold: int&amp;nbsp;&lt;div&gt;&lt;br&gt;&lt;/div&gt;&lt;div&gt;- diastolicThreshold: int&lt;/div&gt;" style="text;strokeColor=none;fillColor=none;align=left;verticalAlign=top;spacingLeft=4;spacingRight=4;overflow=hidden;rotatable=0;points=[[0,0.5],[1,0.5]];portConstraint=eastwest;whiteSpace=wrap;html=1;" vertex="1" parent="m6sJ-5spfT8-BwfnpEcr-20">
          <mxGeometry y="26" width="160" height="54" as="geometry" />
        </mxCell>
        <mxCell id="m6sJ-5spfT8-BwfnpEcr-22" value="" style="line;strokeWidth=1;fillColor=none;align=left;verticalAlign=middle;spacingTop=-1;spacingLeft=3;spacingRight=3;rotatable=0;labelPosition=right;points=[];portConstraint=eastwest;strokeColor=inherit;" vertex="1" parent="m6sJ-5spfT8-BwfnpEcr-20">
          <mxGeometry y="80" width="160" height="8" as="geometry" />
        </mxCell>
        <mxCell id="m6sJ-5spfT8-BwfnpEcr-23" value="+ isTriggered(record: PatientRecord): boolean" style="text;strokeColor=none;fillColor=none;align=left;verticalAlign=top;spacingLeft=4;spacingRight=4;overflow=hidden;rotatable=0;points=[[0,0.5],[1,0.5]];portConstraint=eastwest;whiteSpace=wrap;html=1;" vertex="1" parent="m6sJ-5spfT8-BwfnpEcr-20">
          <mxGeometry y="88" width="160" height="50" as="geometry" />
        </mxCell>
        <mxCell id="m6sJ-5spfT8-BwfnpEcr-28" value="AlertGenerator" style="swimlane;fontStyle=1;align=center;verticalAlign=top;childLayout=stackLayout;horizontal=1;startSize=26;horizontalStack=0;resizeParent=1;resizeParentMax=0;resizeLast=0;collapsible=1;marginBottom=0;whiteSpace=wrap;html=1;" vertex="1" parent="1">
          <mxGeometry x="300" y="40" width="180" height="86" as="geometry" />
        </mxCell>
        <mxCell id="m6sJ-5spfT8-BwfnpEcr-29" value="- dataStorage: DataStorage" style="text;strokeColor=none;fillColor=none;align=left;verticalAlign=top;spacingLeft=4;spacingRight=4;overflow=hidden;rotatable=0;points=[[0,0.5],[1,0.5]];portConstraint=eastwest;whiteSpace=wrap;html=1;" vertex="1" parent="m6sJ-5spfT8-BwfnpEcr-28">
          <mxGeometry y="26" width="180" height="26" as="geometry" />
        </mxCell>
        <mxCell id="m6sJ-5spfT8-BwfnpEcr-30" value="" style="line;strokeWidth=1;fillColor=none;align=left;verticalAlign=middle;spacingTop=-1;spacingLeft=3;spacingRight=3;rotatable=0;labelPosition=right;points=[];portConstraint=eastwest;strokeColor=inherit;" vertex="1" parent="m6sJ-5spfT8-BwfnpEcr-28">
          <mxGeometry y="52" width="180" height="8" as="geometry" />
        </mxCell>
        <mxCell id="m6sJ-5spfT8-BwfnpEcr-31" value="+ evaluateData(patientId: int)" style="text;strokeColor=none;fillColor=none;align=left;verticalAlign=top;spacingLeft=4;spacingRight=4;overflow=hidden;rotatable=0;points=[[0,0.5],[1,0.5]];portConstraint=eastwest;whiteSpace=wrap;html=1;" vertex="1" parent="m6sJ-5spfT8-BwfnpEcr-28">
          <mxGeometry y="60" width="180" height="26" as="geometry" />
        </mxCell>
        <mxCell id="m6sJ-5spfT8-BwfnpEcr-36" value="AlertRule" style="swimlane;fontStyle=0;childLayout=stackLayout;horizontal=1;startSize=26;fillColor=none;horizontalStack=0;resizeParent=1;resizeParentMax=0;resizeLast=0;collapsible=1;marginBottom=0;whiteSpace=wrap;html=1;" vertex="1" parent="1">
          <mxGeometry x="260" y="297" width="260" height="52" as="geometry" />
        </mxCell>
        <mxCell id="m6sJ-5spfT8-BwfnpEcr-37" value="+ isTriggered(record: PatientRecord): boolean" style="text;strokeColor=none;fillColor=none;align=left;verticalAlign=top;spacingLeft=4;spacingRight=4;overflow=hidden;rotatable=0;points=[[0,0.5],[1,0.5]];portConstraint=eastwest;whiteSpace=wrap;html=1;" vertex="1" parent="m6sJ-5spfT8-BwfnpEcr-36">
          <mxGeometry y="26" width="260" height="26" as="geometry" />
        </mxCell>
        <mxCell id="m6sJ-5spfT8-BwfnpEcr-40" value="&lt;span style=&quot;font-weight: normal;&quot;&gt;HeartRateRule&lt;/span&gt;" style="swimlane;fontStyle=1;align=center;verticalAlign=top;childLayout=stackLayout;horizontal=1;startSize=26;horizontalStack=0;resizeParent=1;resizeParentMax=0;resizeLast=0;collapsible=1;marginBottom=0;whiteSpace=wrap;html=1;" vertex="1" parent="1">
          <mxGeometry x="470" y="440" width="260" height="86" as="geometry" />
        </mxCell>
        <mxCell id="m6sJ-5spfT8-BwfnpEcr-41" value="- threshold: int" style="text;strokeColor=none;fillColor=none;align=left;verticalAlign=top;spacingLeft=4;spacingRight=4;overflow=hidden;rotatable=0;points=[[0,0.5],[1,0.5]];portConstraint=eastwest;whiteSpace=wrap;html=1;" vertex="1" parent="m6sJ-5spfT8-BwfnpEcr-40">
          <mxGeometry y="26" width="260" height="26" as="geometry" />
        </mxCell>
        <mxCell id="m6sJ-5spfT8-BwfnpEcr-42" value="" style="line;strokeWidth=1;fillColor=none;align=left;verticalAlign=middle;spacingTop=-1;spacingLeft=3;spacingRight=3;rotatable=0;labelPosition=right;points=[];portConstraint=eastwest;strokeColor=inherit;" vertex="1" parent="m6sJ-5spfT8-BwfnpEcr-40">
          <mxGeometry y="52" width="260" height="8" as="geometry" />
        </mxCell>
        <mxCell id="m6sJ-5spfT8-BwfnpEcr-43" value="+ isTriggered(record: PatientRecord): boolean" style="text;strokeColor=none;fillColor=none;align=left;verticalAlign=top;spacingLeft=4;spacingRight=4;overflow=hidden;rotatable=0;points=[[0,0.5],[1,0.5]];portConstraint=eastwest;whiteSpace=wrap;html=1;" vertex="1" parent="m6sJ-5spfT8-BwfnpEcr-40">
          <mxGeometry y="60" width="260" height="26" as="geometry" />
        </mxCell>
        <mxCell id="m6sJ-5spfT8-BwfnpEcr-50" value="Alert" style="swimlane;fontStyle=0;childLayout=stackLayout;horizontal=1;startSize=26;fillColor=none;horizontalStack=0;resizeParent=1;resizeParentMax=0;resizeLast=0;collapsible=1;marginBottom=0;whiteSpace=wrap;html=1;" vertex="1" parent="1">
          <mxGeometry x="20" y="220" width="140" height="110" as="geometry" />
        </mxCell>
        <mxCell id="m6sJ-5spfT8-BwfnpEcr-51" value="- patientId: String&lt;div&gt;&amp;nbsp;&lt;div&gt;- condition: String&amp;nbsp;&lt;/div&gt;&lt;div&gt;&lt;br&gt;&lt;/div&gt;&lt;div&gt;- timestamp: long&lt;/div&gt;&lt;/div&gt;" style="text;strokeColor=none;fillColor=none;align=left;verticalAlign=top;spacingLeft=4;spacingRight=4;overflow=hidden;rotatable=0;points=[[0,0.5],[1,0.5]];portConstraint=eastwest;whiteSpace=wrap;html=1;" vertex="1" parent="m6sJ-5spfT8-BwfnpEcr-50">
          <mxGeometry y="26" width="140" height="84" as="geometry" />
        </mxCell>
        <mxCell id="m6sJ-5spfT8-BwfnpEcr-52" value="AlertManager&lt;span style=&quot;white-space: pre;&quot;&gt;&#x9;&lt;/span&gt;" style="swimlane;fontStyle=0;childLayout=stackLayout;horizontal=1;startSize=26;fillColor=none;horizontalStack=0;resizeParent=1;resizeParentMax=0;resizeLast=0;collapsible=1;marginBottom=0;whiteSpace=wrap;html=1;" vertex="1" parent="1">
          <mxGeometry x="70" y="430" width="170" height="70" as="geometry" />
        </mxCell>
        <mxCell id="m6sJ-5spfT8-BwfnpEcr-53" value="+ dispatchAlert(alert: Alert)" style="text;strokeColor=none;fillColor=none;align=left;verticalAlign=top;spacingLeft=4;spacingRight=4;overflow=hidden;rotatable=0;points=[[0,0.5],[1,0.5]];portConstraint=eastwest;whiteSpace=wrap;html=1;" vertex="1" parent="m6sJ-5spfT8-BwfnpEcr-52">
          <mxGeometry y="26" width="170" height="44" as="geometry" />
        </mxCell>
        <mxCell id="m6sJ-5spfT8-BwfnpEcr-54" value="" style="endArrow=open;endFill=1;endSize=12;html=1;rounded=0;" edge="1" parent="1" source="m6sJ-5spfT8-BwfnpEcr-28" target="m6sJ-5spfT8-BwfnpEcr-36">
          <mxGeometry width="160" relative="1" as="geometry">
            <mxPoint x="370" y="320" as="sourcePoint" />
            <mxPoint x="410" y="380" as="targetPoint" />
          </mxGeometry>
        </mxCell>
        <mxCell id="m6sJ-5spfT8-BwfnpEcr-55" value="" style="endArrow=block;dashed=1;endFill=0;endSize=12;html=1;rounded=0;exitX=0.143;exitY=0.088;exitDx=0;exitDy=0;exitPerimeter=0;" edge="1" parent="1" source="m6sJ-5spfT8-BwfnpEcr-40" target="m6sJ-5spfT8-BwfnpEcr-36">
          <mxGeometry width="160" relative="1" as="geometry">
            <mxPoint x="430" y="430" as="sourcePoint" />
            <mxPoint x="590" y="430" as="targetPoint" />
          </mxGeometry>
        </mxCell>
        <mxCell id="m6sJ-5spfT8-BwfnpEcr-56" value="" style="endArrow=block;dashed=1;endFill=0;endSize=12;html=1;rounded=0;" edge="1" parent="1" source="m6sJ-5spfT8-BwfnpEcr-28" target="m6sJ-5spfT8-BwfnpEcr-50">
          <mxGeometry width="160" relative="1" as="geometry">
            <mxPoint x="697" y="200" as="sourcePoint" />
            <mxPoint x="540" y="219" as="targetPoint" />
          </mxGeometry>
        </mxCell>
        <mxCell id="m6sJ-5spfT8-BwfnpEcr-57" value="" style="endArrow=block;dashed=1;endFill=0;endSize=12;html=1;rounded=0;entryX=0.621;entryY=0.04;entryDx=0;entryDy=0;entryPerimeter=0;" edge="1" parent="1" source="m6sJ-5spfT8-BwfnpEcr-50" target="m6sJ-5spfT8-BwfnpEcr-52">
          <mxGeometry width="160" relative="1" as="geometry">
            <mxPoint x="422" y="250" as="sourcePoint" />
            <mxPoint x="240" y="350" as="targetPoint" />
          </mxGeometry>
        </mxCell>
        <mxCell id="m6sJ-5spfT8-BwfnpEcr-58" value="" style="endArrow=block;dashed=1;endFill=0;endSize=12;html=1;rounded=0;" edge="1" parent="1" source="m6sJ-5spfT8-BwfnpEcr-20" target="m6sJ-5spfT8-BwfnpEcr-36">
          <mxGeometry width="160" relative="1" as="geometry">
            <mxPoint x="677" y="230" as="sourcePoint" />
            <mxPoint x="520" y="249" as="targetPoint" />
          </mxGeometry>
        </mxCell>
      </root>
    </mxGraphModel>
  </diagram>
</mxfile>
